<svg width="140" height="140" viewBox="0 0 140 140" fill="none" xmlns="http://www.w3.org/2000/svg">
<path fill-rule="evenodd" clip-rule="evenodd" d="M97.2597 5.54551C61.6625 -9.5096 20.6006 7.14308 5.54554 42.7403C-9.50956 78.3375 7.14312 119.399 42.7403 134.454C78.3375 149.51 119.399 132.857 134.454 97.2596C149.51 61.6624 132.857 20.6006 97.2597 5.54551ZM79.2271 32.9813H49.1611C47.9343 32.9813 46.7578 33.4145 45.8903 34.1855C45.0229 34.9566 44.5356 36.0024 44.5356 37.0929V98.7666C44.5356 99.857 45.0229 100.903 45.8903 101.674C46.7578 102.445 47.9343 102.878 49.1611 102.878H95.4165C96.6432 102.878 97.8198 102.445 98.6872 101.674C99.5547 100.903 100.042 99.857 100.042 98.7666V51.4834L79.2271 32.9813ZM79.2271 39.1487L93.1037 51.4834H81.5399C80.9265 51.4834 80.3382 51.2668 79.9045 50.8813C79.4708 50.4957 79.2271 49.9728 79.2271 49.4276V39.1487ZM88.4777 67.9297C88.4777 67.3846 88.2341 66.8618 87.8005 66.4763C87.3668 66.0909 86.7787 65.8744 86.1654 65.8744C85.5521 65.8744 84.964 66.0909 84.5303 66.4763L67.6633 81.4691L60.0473 74.6994C59.6111 74.3249 59.0269 74.1177 58.4205 74.1224C57.8141 74.1271 57.234 74.3433 56.8052 74.7245C56.3764 75.1056 56.1332 75.6212 56.1279 76.1603C56.1226 76.6993 56.3558 77.2186 56.777 77.6063L67.6633 87.2829L87.8005 69.3832C88.2341 68.9976 88.4777 68.4748 88.4777 67.9297Z" fill="#28ABB8"/>
</svg>
