<svg width="140" height="140" viewBox="0 0 140 140" fill="none" xmlns="http://www.w3.org/2000/svg">
<path fill-rule="evenodd" clip-rule="evenodd" d="M5.54554 42.7403C20.6006 7.14309 61.6624 -9.50958 97.2597 5.54552C132.857 20.6006 149.51 61.6624 134.454 97.2596C119.399 132.857 78.3375 149.51 42.7403 134.454C7.14312 119.399 -9.50956 78.3375 5.54554 42.7403ZM106.579 46.3745C104.861 46.3745 103.213 46.9812 101.998 48.0612C100.783 49.1412 100.1 50.606 100.1 52.1333V55.9725H113.058V52.1333C113.058 50.606 112.375 49.1412 111.16 48.0612C109.945 46.9812 108.297 46.3745 106.579 46.3745ZM100.1 59.8117V91.4853L106.579 100.124L113.058 91.4853V59.8117H100.1ZM35.3131 96.2841V38.6958C35.3131 37.1685 35.9957 35.7037 37.2107 34.6237C38.4257 33.5437 40.0736 32.937 41.7918 32.937H89.3022C91.0205 32.937 92.6684 33.5437 93.8834 34.6237C95.0984 35.7037 95.7809 37.1685 95.7809 38.6958V96.2841C95.7809 97.8114 95.0984 99.2762 93.8834 100.356C92.6684 101.436 91.0205 102.043 89.3022 102.043H41.7918C40.0736 102.043 38.4257 101.436 37.2107 100.356C35.9957 99.2762 35.3131 97.8114 35.3131 96.2841ZM66.1796 48.8561C65.7746 49.2161 65.547 49.7044 65.547 50.2135C65.547 50.7226 65.7746 51.2108 66.1796 51.5708C66.5845 51.9308 67.1338 52.1331 67.7066 52.1331H84.9831C85.5559 52.1331 86.1052 51.9308 86.5102 51.5708C86.9152 51.2108 87.1427 50.7226 87.1427 50.2135C87.1427 49.7044 86.9152 49.2161 86.5102 48.8561C86.1052 48.4961 85.5559 48.2939 84.9831 48.2939H67.7066C67.1338 48.2939 66.5845 48.4961 66.1796 48.8561ZM66.1796 56.5345C66.5845 56.1745 67.1338 55.9723 67.7066 55.9723H84.9831C85.5559 55.9723 86.1052 56.1745 86.5102 56.5345C86.9152 56.8945 87.1427 57.3828 87.1427 57.8919C87.1427 58.401 86.9152 58.8893 86.5102 59.2493C86.1052 59.6093 85.5559 59.8115 84.9831 59.8115H67.7066C67.1338 59.8115 66.5845 59.6093 66.1796 59.2493C65.7746 58.8893 65.547 58.401 65.547 57.8919C65.547 57.3828 65.7746 56.8945 66.1796 56.5345ZM66.1796 73.811C65.7746 74.171 65.547 74.6593 65.547 75.1684C65.547 75.6775 65.7746 76.1658 66.1796 76.5258C66.5845 76.8858 67.1338 77.088 67.7066 77.088H84.9831C85.5559 77.088 86.1052 76.8858 86.5102 76.5258C86.9152 76.1658 87.1427 75.6775 87.1427 75.1684C87.1427 74.6593 86.9152 74.171 86.5102 73.811C86.1052 73.451 85.5559 73.2488 84.9831 73.2488H67.7066C67.1338 73.2488 66.5845 73.451 66.1796 73.811ZM66.1796 81.4895C66.5845 81.1295 67.1338 80.9272 67.7066 80.9272H84.9831C85.5559 80.9272 86.1052 81.1295 86.5102 81.4895C86.9152 81.8495 87.1427 82.3377 87.1427 82.8468C87.1427 83.3559 86.9152 83.8442 86.5102 84.2042C86.1052 84.5642 85.5559 84.7664 84.9831 84.7664H67.7066C67.1338 84.7664 66.5845 84.5642 66.1796 84.2042C65.7746 83.8442 65.547 83.3559 65.547 82.8468C65.547 82.3377 65.7746 81.8495 66.1796 81.4895ZM48.2705 80.9272V75.1684H54.7492V80.9272H48.2705ZM56.9088 71.3292H46.1109C45.5382 71.3292 44.9889 71.5314 44.5839 71.8914C44.1789 72.2514 43.9514 72.7397 43.9514 73.2488V82.8468C43.9514 83.3559 44.1789 83.8442 44.5839 84.2042C44.9889 84.5642 45.5382 84.7664 46.1109 84.7664H56.9088C57.4815 84.7664 58.0308 84.5642 58.4358 84.2042C58.8408 83.8442 59.0683 83.3559 59.0683 82.8468V73.2488C59.0683 72.7397 58.8408 72.2514 58.4358 71.8914C58.0308 71.5314 57.4815 71.3292 56.9088 71.3292ZM61.2013 50.2204C61.2062 50.7237 60.9885 51.2086 60.5951 51.5706L50.4301 60.6062L44.5841 55.4099C44.1907 55.0478 43.9731 54.5629 43.978 54.0596C43.9829 53.5563 44.21 53.0748 44.6104 52.7189C45.0108 52.363 45.5525 52.1611 46.1187 52.1567C46.6849 52.1524 47.2304 52.3459 47.6377 52.6955L50.4301 55.1776L57.5415 48.8563C57.9488 48.5066 58.4943 48.3131 59.0606 48.3175C59.6268 48.3219 60.1684 48.5238 60.5688 48.8797C60.9692 49.2356 61.1964 49.7171 61.2013 50.2204Z" fill="#28ABB8"/>
</svg>
