<svg width="140" height="140" viewBox="0 0 140 140" fill="none" xmlns="http://www.w3.org/2000/svg">
<path fill-rule="evenodd" clip-rule="evenodd" d="M5.54554 42.7403C20.6006 7.14309 61.6624 -9.50958 97.2597 5.54552C132.857 20.6006 149.51 61.6624 134.454 97.2596C119.399 132.857 78.3375 149.51 42.7403 134.454C7.14312 119.399 -9.50956 78.3375 5.54554 42.7403ZM72.4539 99.6913H35.835C34.5401 99.6913 33.2982 99.1769 32.3826 98.2613C31.4669 97.3456 30.9525 96.1037 30.9525 94.8088V45.9837C30.9525 44.6888 31.4669 43.4469 32.3826 42.5313C33.2982 41.6156 34.5401 41.1012 35.835 41.1012H104.19C105.485 41.1012 106.727 41.6156 107.643 42.5313C108.558 43.4469 109.073 44.6888 109.073 45.9837V71.2995C105.82 67.1573 101.09 64.4364 95.8736 63.7083C90.6578 62.9802 85.3626 64.3015 81.1003 67.3948C76.838 70.4881 73.9401 75.1126 73.0152 80.2972C72.0903 85.4818 73.2104 90.8231 76.1402 95.1994L73.8698 97.9825L72.4539 99.6913ZM43.1588 55.7487V59.6547H84.6601V55.7487H43.1588ZM43.1588 69.4198H70.0126V65.5138H43.1588V69.4198ZM43.1588 86.5086H67.5714V82.6025H43.1588V86.5086ZM106.817 76.6641C108.032 78.9334 108.664 81.4688 108.658 84.0429C108.653 86.1407 108.223 88.2158 107.392 90.1421C106.561 92.0683 105.347 93.8056 103.824 95.2483L108.56 101.034L106.363 109.847L97.4279 98.959C94.5996 99.7952 91.5898 99.7952 88.7615 98.959L79.8265 109.847L77.6293 101.034L82.3654 95.2483C80.5041 93.4702 79.1132 91.258 78.3176 88.81C77.522 86.3619 77.3465 83.7547 77.8069 81.2221C78.2673 78.6896 79.3491 76.3109 80.9554 74.2995C82.5616 72.2881 84.6421 70.7069 87.0101 69.6977C89.378 68.6885 91.9595 68.2829 94.5229 68.5172C97.0863 68.7516 99.5514 69.6186 101.697 71.0405C103.843 72.4624 105.602 74.3947 106.817 76.6641ZM84.1649 78.0765C83.0105 79.8501 82.4096 81.9269 82.4386 84.0429H82.463C82.4888 86.8466 83.6224 89.5264 85.6164 91.4975C87.6104 93.4687 90.3031 94.5713 93.1069 94.5647C95.2231 94.5645 97.2914 93.9349 99.0488 92.7561C100.806 91.5772 102.173 89.9024 102.976 87.9444C103.779 85.9865 103.982 83.834 103.558 81.7607C103.135 79.6873 102.104 77.7868 100.597 76.3008C99.0905 74.8148 97.1759 73.8105 95.0969 73.4156C93.0179 73.0206 90.8684 73.2529 88.9218 74.0829C86.9752 74.9128 85.3194 76.303 84.1649 78.0765Z" fill="#28ABB8"/>
</svg>
